<svg width="1010" height="231" viewBox="0 0 267.23 61.119" xmlns="http://www.w3.org/2000/svg"><path d="M32.905 56.014c-2.43-2.567-3.672-5.77-3.672-9.607 0-3.755 1.243-6.93 3.672-9.525q3.768-3.975 9.359-3.975c5.052 0 8.834 2.098 11.319 6.294l-5.246 2.9c-.082-.332-.358-.691-.745-1.133-1.408-1.573-3.23-2.319-5.383-2.319s-3.755.828-4.86 2.485c-.91 1.408-1.352 3.257-1.352 5.549 0 2.319.552 4.113 1.629 5.494 1.187 1.435 2.926 2.153 5.163 2.153 1.325 0 2.512-.414 3.616-1.242 1.187-.884 1.85-1.933 1.933-3.203h-5.743V44.64h12.59v1.38c0 4.252-1.05 7.592-3.175 10.021-2.237 2.54-5.44 3.81-9.663 3.81-3.837 0-6.984-1.27-9.441-3.837m52.728 1.64c-2.236-1.684-3.368-3.975-3.368-6.846V33.83h6.543v15.598c0 3.009 1.49 4.527 4.527 4.527 1.325 0 2.485-.359 3.286-1.077.8-.773 1.242-1.822 1.242-3.12V33.83h6.515v16.26c0 3.174-1.05 5.66-3.258 7.398-1.987 1.574-4.638 2.347-7.923 2.347-3.009 0-5.549-.718-7.564-2.181m107.056-8.42-2.65-7.675-2.678 7.675zm-6.322-15.405h7.51l9.275 25.095h-7.067l-1.684-4.638h-8.697l-1.656 4.638h-6.984zm20.432.006h6.543l11.567 14.88v-14.88h6.515V58.93h-6.543l-11.54-14.963V58.93H206.8zM1.323 2.192h6.543l11.733 14.88V2.192h6.543v25.095h-6.737L7.865 12.324v14.963H1.323zm46.959 17.792c1.353-1.353 2.043-3.175 2.043-5.383 0-2.016-.69-3.7-2.07-5.08s-3.12-2.098-5.19-2.098c-2.099 0-3.783.745-5.163 2.098-1.353 1.38-2.016 3.147-2.016 5.273 0 2.18.635 3.865 1.988 5.245 1.325 1.353 3.037 2.043 5.19 2.043 2.098 0 3.865-.69 5.218-2.098m-15.129 4.39c-2.623-2.568-3.893-5.743-3.893-9.663s1.325-7.178 4.059-9.745c2.65-2.457 5.88-3.7 9.772-3.7 3.92 0 7.233 1.298 9.856 3.838 2.678 2.54 3.975 5.687 3.975 9.386 0 3.976-1.325 7.288-4.03 9.884-2.65 2.567-5.936 3.837-9.828 3.837-4.03 0-7.344-1.27-9.911-3.837m35.862-10.88c2.264 0 3.368-1.05 3.368-3.147 0-2.07-1.077-3.147-3.313-3.147h-2.043v6.294zm-8.53-11.291h9.993c2.512 0 4.5.69 6.101 2.015 1.63 1.436 2.485 3.368 2.485 5.825q0 5.218-4.307 6.874l6.709 10.353h-7.84l-5.274-8.834h-1.325v8.834h-6.542zm27.109 6.534h-5.3V2.195h17.143v6.542h-5.3V27.29h-6.543zm15.986-6.545h6.543v8.862h9.165V2.192h6.57v25.095h-6.57v-9.69h-9.165v9.69h-6.543zm35.67 11.302c2.264 0 3.368-1.05 3.368-3.147 0-2.07-1.077-3.147-3.313-3.147h-2.043v6.294zm-8.53-11.291h9.993c2.512 0 4.5.69 6.101 2.015 1.63 1.436 2.485 3.368 2.485 5.825q0 5.218-4.307 6.874l6.709 10.353h-7.84l-5.274-8.834h-1.325v8.834h-6.542zm40.96 17.781c1.353-1.353 2.015-3.175 2.015-5.383 0-2.016-.662-3.7-2.043-5.08-1.38-1.38-3.12-2.098-5.19-2.098-2.098 0-3.81.745-5.162 2.098-1.353 1.38-2.016 3.147-2.016 5.273 0 2.18.635 3.865 1.988 5.245 1.325 1.353 3.037 2.043 5.19 2.043 2.098 0 3.865-.69 5.218-2.098m-15.129 4.39c-2.623-2.568-3.893-5.743-3.893-9.663s1.326-7.178 4.059-9.745c2.65-2.457 5.88-3.7 9.772-3.7 3.92 0 7.206 1.298 9.856 3.838 2.678 2.54 3.975 5.687 3.975 9.386 0 3.976-1.325 7.288-4.03 9.884-2.65 2.567-5.936 3.837-9.828 3.837-4.03 0-7.344-1.27-9.911-3.837m36.589-10.651c2.595 0 3.837-1.077 3.837-3.368 0-2.18-1.214-3.23-3.782-3.23h-2.236v6.598zm-8.724-11.54h11.181c2.457 0 4.417.8 5.825 2.457 1.408 1.49 2.098 3.506 2.098 5.963 0 2.374-.69 4.28-2.098 5.715-1.408 1.463-3.257 2.236-5.604 2.236h-4.859v8.724h-6.543zm22.384.009v6.543h52.563v50.189h6.543V2.192zm-82.93 44.613 8.282-12.948h6.543v25.067h-6.515V44.21h-.028l-6.515 10.242h-3.479l-6.542-10.242v14.714h-6.57V33.857h6.57zm35.03 0 8.282-12.948h6.543v25.067h-6.515V44.21h-.028l-6.515 10.242h-3.479l-6.542-10.242h-.028v14.714h-6.543V33.857h6.57zm-91.293-1.668c2.264 0 3.368-1.05 3.368-3.147 0-2.07-1.077-3.147-3.313-3.147H65.62v6.294zm-8.53-11.291h9.993c2.512 0 4.5.69 6.101 2.015 1.657 1.436 2.485 3.368 2.485 5.825q0 5.218-4.307 6.874l6.709 10.353h-7.84l-5.274-8.834H65.62v8.834h-6.542z" fill="#2b3790"/></svg>